<?xml version="1.0" standalone="no"?>
<!DOCTYPE svg PUBLIC "-//W3C//DTD SVG 20010904//EN"
 "http://www.w3.org/TR/2001/REC-SVG-20010904/DTD/svg10.dtd">
<svg version="1.0" xmlns="http://www.w3.org/2000/svg"
 width="256.000000pt" height="256.000000pt" viewBox="0 0 256.000000 256.000000"
 preserveAspectRatio="xMidYMid meet">
<metadata>
Created by potrace 1.11, written by Peter Selinger 2001-2013
</metadata>
<g transform="translate(0.000000,256.000000) scale(0.100000,-0.100000)"
fill="#000000" stroke="none">
<path d="M361 2544 c-165 -44 -294 -173 -345 -343 -14 -47 -16 -156 -16 -905
0 -545 4 -872 10 -907 33 -175 176 -326 351 -373 45 -12 198 -15 919 -15 815
-1 869 0 926 18 157 47 265 146 325 296 l24 60 3 875 c3 784 1 882 -13 944
-41 168 -176 305 -346 350 -81 22 -1758 22 -1838 0z m839 -664 l0 -520 -520 0
-520 0 0 383 c0 330 2 390 16 433 35 102 105 173 204 207 37 13 111 16 433 17
l387 0 0 -520z m966 508 c88 -26 160 -89 205 -176 24 -47 24 -48 27 -449 l3
-403 -520 0 -521 0 0 520 0 520 383 0 c259 -1 397 -5 423 -12z m-966 -1709 l0
-520 -402 3 -403 3 -49 25 c-65 33 -126 93 -156 155 l-25 50 -3 403 -3 402
520 0 521 0 0 -521z m1198 119 l-3 -403 -25 -50 c-31 -64 -91 -124 -155 -155
l-50 -25 -402 -3 -403 -3 0 520 0 521 521 0 520 0 -3 -402z"/>
<path d="M600 2060 l0 -100 -100 0 -100 0 0 -80 0 -80 100 0 100 0 0 -100 0
-100 80 0 80 0 0 100 0 100 100 0 100 0 0 80 0 80 -100 0 -100 0 0 100 0 100
-80 0 -80 0 0 -100z"/>
<path d="M1680 2075 l-54 -55 69 -70 69 -70 -69 -70 -70 -70 58 -58 58 -57 68
71 69 71 71 -71 71 -71 57 58 58 57 -68 68 c-37 37 -67 70 -67 74 0 3 30 35
68 72 l67 65 -58 58 -57 58 -67 -67 c-36 -38 -69 -68 -72 -68 -4 0 -36 29 -71
65 -35 36 -67 65 -70 65 -3 0 -30 -25 -60 -55z"/>
<path d="M400 680 l0 -80 280 0 280 0 0 80 0 80 -280 0 -280 0 0 -80z"/>
<path d="M1845 991 c-30 -12 -49 -54 -40 -88 9 -39 22 -52 60 -59 67 -12 113
52 81 114 -21 41 -54 52 -101 33z"/>
<path d="M1600 680 l0 -80 280 0 280 0 0 80 0 80 -280 0 -280 0 0 -80z"/>
<path d="M1848 513 c-29 -7 -51 -52 -44 -88 8 -40 24 -54 69 -62 28 -4 39 0
62 22 23 24 26 34 21 64 -9 56 -49 80 -108 64z"/>
</g>
</svg>
